<?xml version="1.0" encoding="utf-8"?>
<!-- Generator: Adobe Illustrator 22.0.0, SVG Export Plug-In . SVG Version: 6.00 Build 0)  -->
<svg version="1.1" id="Layer_1" xmlns="http://www.w3.org/2000/svg" xmlns:xlink="http://www.w3.org/1999/xlink" x="0px" y="0px"
	 viewBox="0 0 1050.3 258.8" style="enable-background:new 0 0 1050.3 258.8;" xml:space="preserve">
<style type="text/css">
	.st0{fill:#FFFFFF;}
</style>
<g>
	<path class="st0" d="M16,242.7l0.9,6.4l1.4-5.7l9.5-33.6h5.4l9.3,33.6l1.3,5.8l1-6.5l7.5-33h6.4L47,257.9h-5.8l-9.9-35.1l-0.8-3.7
		l-0.8,3.7l-10.3,35.1h-5.8L1.9,209.7h6.4L16,242.7z"/>
	<path class="st0" d="M106.7,235.6H85.8v17.1h24.3v5.2H79.5v-48.2h30.3v5.2H85.9v15.5h20.9L106.7,235.6L106.7,235.6z"/>
	<path class="st0" d="M131.7,258v-48.2h15.8c5.2,0,9.2,1.1,11.8,3.2c2.6,2.2,4,5.4,4,9.6c0,2.3-0.6,4.2-1.9,6c-1.3,1.7-3,3.1-5.2,4
		c2.6,0.7,4.7,2.1,6.2,4.2c1.5,2,2.3,4.5,2.3,7.3c0,4.3-1.4,7.7-4.2,10.2c-2.8,2.5-6.8,3.7-11.9,3.7L131.7,258L131.7,258z
		 M138,230.2h9.6c2.8,0,5-0.7,6.7-2.1s2.5-3.3,2.5-5.7c0-2.7-0.8-4.6-2.3-5.8c-1.5-1.2-3.9-1.8-7.1-1.8H138V230.2z M138,235.3v17.3
		h10.5c3,0,5.3-0.8,7-2.3s2.6-3.6,2.6-6.3c0-5.8-3.2-8.7-9.5-8.7H138z"/>
	<path class="st0" d="M218,258v-48.2h13.6c4.2,0,7.9,0.9,11.1,2.8s5.7,4.5,7.5,7.9s2.6,7.3,2.7,11.8v3.1c0,4.5-0.9,8.5-2.6,11.9
		c-1.8,3.4-4.3,6-7.5,7.9c-3.3,1.8-7,2.8-11.4,2.8L218,258L218,258z M224.4,214.9v37.8h6.7c4.9,0,8.7-1.5,11.4-4.6
		c2.7-3,4.1-7.4,4.1-13v-2.8c0-5.5-1.3-9.7-3.9-12.8c-2.6-3-6.2-4.6-10.9-4.6H224.4z"/>
	<path class="st0" d="M283,258h-6.4v-48.2h6.4V258z"/>
	<path class="st0" d="M343.9,251.6c-1.6,2.3-3.9,4.1-6.8,5.2c-2.9,1.2-6.3,1.7-10.2,1.7c-3.9,0-7.4-0.9-10.5-2.8
		c-3-1.8-5.4-4.5-7.1-7.9s-2.5-7.3-2.6-11.8v-4.2c0-7.3,1.7-12.9,5.1-16.9s8.1-6,14.3-6c5,0,9.1,1.3,12.1,3.9
		c3.1,2.6,4.9,6.2,5.6,10.9h-6.4c-1.2-6.4-5-9.6-11.4-9.6c-4.3,0-7.5,1.5-9.7,4.5s-3.3,7.3-3.3,13v3.9c0,5.4,1.2,9.7,3.7,12.9
		c2.5,3.2,5.8,4.8,10,4.8c2.4,0,4.5-0.3,6.3-0.8s3.3-1.4,4.4-2.7v-10.8h-11.2v-5.2h17.5v17.9H343.9z"/>
	<path class="st0" d="M375,258h-6.4v-48.2h6.4V258z"/>
	<path class="st0" d="M432.6,214.9h-15.5v43h-6.3v-43h-15.5v-5.2h37.3V214.9z"/>
	<path class="st0" d="M477.5,245.3h-20.2l-4.5,12.6h-6.6l18.4-48.2h5.6l18.4,48.2h-6.5L477.5,245.3z M459.2,240.1h16.4l-8.2-22.5
		L459.2,240.1z"/>
	<path class="st0" d="M515.2,252.7H538v5.2h-29.2v-48.2h6.4L515.2,252.7L515.2,252.7z"/>
	<path class="st0" d="M603.6,236.4c-5.5-1.6-9.4-3.5-11.9-5.8s-3.7-5.1-3.7-8.5c0-3.8,1.5-6.9,4.6-9.4c3-2.5,7-3.7,11.8-3.7
		c3.3,0,6.3,0.6,8.9,1.9c2.6,1.3,4.6,3,6,5.3c1.4,2.3,2.1,4.7,2.1,7.4H615c0-2.9-0.9-5.2-2.8-6.9c-1.9-1.7-4.5-2.5-7.8-2.5
		c-3.1,0-5.6,0.7-7.3,2.1c-1.8,1.4-2.6,3.3-2.6,5.8c0,2,0.8,3.6,2.5,5c1.7,1.4,4.5,2.6,8.5,3.7s7.1,2.4,9.4,3.7
		c2.3,1.4,3.9,2.9,5,4.7c1.1,1.8,1.6,3.9,1.6,6.4c0,3.9-1.5,7-4.6,9.4c-3,2.3-7.1,3.5-12.2,3.5c-3.3,0-6.4-0.6-9.3-1.9
		c-2.9-1.3-5.1-3-6.6-5.2c-1.6-2.2-2.3-4.7-2.3-7.5h6.4c0,2.9,1.1,5.2,3.2,6.9c2.2,1.7,5,2.5,8.6,2.5c3.4,0,5.9-0.7,7.7-2.1
		c1.8-1.4,2.7-3.2,2.7-5.6s-0.8-4.2-2.5-5.5C611,238.9,608,237.6,603.6,236.4z"/>
	<path class="st0" d="M680.4,235.3c0,4.7-0.8,8.8-2.4,12.4c-1.6,3.5-3.8,6.2-6.8,8.1c-3,1.9-6.3,2.8-10.2,2.8
		c-3.8,0-7.2-0.9-10.1-2.8c-2.9-1.9-5.2-4.5-6.8-8c-1.6-3.5-2.5-7.5-2.5-12v-3.5c0-4.6,0.8-8.7,2.4-12.3c1.6-3.6,3.9-6.3,6.8-8.2
		c2.9-1.9,6.3-2.8,10.1-2.8c3.9,0,7.3,0.9,10.2,2.8c2.9,1.9,5.2,4.6,6.8,8.1c1.6,3.5,2.4,7.7,2.4,12.4v3H680.4z M674.1,232.2
		c0-5.7-1.1-10.1-3.4-13.2s-5.5-4.6-9.6-4.6c-4,0-7.2,1.5-9.5,4.6c-2.3,3.1-3.5,7.3-3.6,12.7v3.5c0,5.5,1.2,9.9,3.5,13.1
		c2.3,3.2,5.5,4.7,9.6,4.7c4.1,0,7.3-1.5,9.5-4.5c2.3-3,3.4-7.3,3.5-12.9C674.1,235.7,674.1,232.2,674.1,232.2z"/>
	<path class="st0" d="M710,252.7h22.8v5.2h-29.2v-48.2h6.4V252.7z"/>
	<path class="st0" d="M785.9,209.7v32.8c0,4.5-1.5,8.3-4.3,11.2c-2.8,2.9-6.7,4.5-11.5,4.9l-1.7,0.1c-5.3,0-9.5-1.4-12.6-4.3
		c-3.1-2.8-4.7-6.8-4.8-11.7v-32.8h6.3v32.4c0,3.5,1,6.2,2.9,8.1c1.9,1.9,4.7,2.9,8.2,2.9c3.6,0,6.4-1,8.3-2.9
		c1.9-1.9,2.9-4.6,2.9-8.1v-32.7h6.3V209.7z"/>
	<path class="st0" d="M843,214.9h-15.5v43h-6.3v-43h-15.5v-5.2H843V214.9z"/>
	<path class="st0" d="M870.6,258h-6.4v-48.2h6.4V258z"/>
	<path class="st0" d="M933,235.3c0,4.7-0.8,8.8-2.4,12.4c-1.6,3.5-3.8,6.2-6.8,8.1c-2.9,1.9-6.3,2.8-10.2,2.8
		c-3.8,0-7.2-0.9-10.1-2.8c-2.9-1.9-5.2-4.5-6.8-8c-1.6-3.5-2.5-7.5-2.5-12v-3.5c0-4.6,0.8-8.7,2.4-12.3c1.6-3.6,3.9-6.3,6.8-8.2
		c2.9-1.9,6.3-2.8,10.1-2.8c3.9,0,7.3,0.9,10.2,2.8c2.9,1.9,5.2,4.6,6.8,8.1c1.6,3.5,2.4,7.7,2.4,12.4L933,235.3L933,235.3z
		 M926.7,232.2c0-5.7-1.1-10.1-3.4-13.2s-5.5-4.6-9.6-4.6c-4,0-7.2,1.5-9.5,4.6s-3.5,7.3-3.6,12.7v3.5c0,5.5,1.2,9.9,3.5,13.1
		c2.3,3.2,5.5,4.7,9.6,4.7c4.1,0,7.3-1.5,9.5-4.5c2.3-3,3.4-7.3,3.5-12.9V232.2z"/>
	<path class="st0" d="M993.3,258h-6.4l-24.3-37.1V258h-6.4v-48.2h6.4l24.3,37.3v-37.3h6.3L993.3,258L993.3,258z"/>
	<path class="st0" d="M1032.4,236.4c-5.5-1.6-9.4-3.5-11.9-5.8s-3.7-5.1-3.7-8.5c0-3.8,1.5-6.9,4.6-9.4c3-2.5,7-3.7,11.8-3.7
		c3.3,0,6.3,0.6,8.9,1.9s4.6,3,6,5.3s2.1,4.7,2.1,7.4h-6.4c0-2.9-0.9-5.2-2.8-6.9c-1.9-1.7-4.5-2.5-7.8-2.5c-3.1,0-5.6,0.7-7.3,2.1
		c-1.8,1.4-2.6,3.3-2.6,5.8c0,2,0.8,3.6,2.5,5c1.7,1.4,4.5,2.6,8.5,3.7s7.1,2.4,9.4,3.7c2.3,1.4,3.9,2.9,5,4.7
		c1.1,1.8,1.6,3.9,1.6,6.4c0,3.9-1.5,7-4.6,9.4c-3,2.3-7.1,3.5-12.2,3.5c-3.3,0-6.4-0.6-9.3-1.9c-2.9-1.3-5.1-3-6.6-5.2
		c-1.6-2.2-2.3-4.7-2.3-7.5h6.4c0,2.9,1.1,5.2,3.2,6.9c2.2,1.7,5,2.5,8.6,2.5c3.4,0,5.9-0.7,7.7-2.1c1.8-1.4,2.7-3.2,2.7-5.6
		s-0.8-4.2-2.5-5.5C1039.8,238.9,1036.8,237.6,1032.4,236.4z"/>
</g>
<g>
	<path class="st0" d="M87.2,1.5H94c23,0,43.4,9.8,61.2,29.3l3.2,3.8c-11.1,7.1-17.1,10.6-18,10.6c-13.2-16-30-24.1-50.5-24.1
		c-25.1,0-44.3,11.2-57.9,33.8c-6.3,12-9.4,23.4-9.4,34.3L22,89.6H0.6C0.2,89.6,0,89.4,0,89c0-24.3,9.3-45.6,27.9-64
		C46,9.2,65.7,1.4,87.2,1.5z M77.8,89.5l80.6,0.1c0.4,0.1,0.6,0.3,0.6,0.8v62.3c-8.2,8.9-15.2,14.7-21,17.4h-0.6v-61.2H77.8
		c-0.4,0-0.6-0.2-0.6-0.6V90.5C77.2,89.8,77.5,89.5,77.8,89.5z"/>
	<path class="st0" d="M184.2,163l117.7,0.1c0.5,0,0.8,0.2,0.8,0.6v18.5c0,0.5-0.3,0.8-0.8,0.8l-117.7-0.1c-0.5,0-0.8-0.3-0.8-0.8
		v-18.5C183.5,163.2,183.8,163,184.2,163z M184.2,80.4l115.9,0.1c0.5,0.1,0.8,0.3,0.8,0.8v18.5c0,0.5-0.3,0.8-0.8,0.8l-115.9-0.1
		c-0.5,0-0.8-0.3-0.8-0.8V81.3C183.6,80.6,183.8,80.4,184.2,80.4z M184.3,1.4L302,1.5c0.5,0.1,0.8,0.3,0.8,0.8v18.5
		c0,0.4-0.3,0.6-0.8,0.6l-117.7-0.1c-0.5,0-0.8-0.2-0.8-0.6V2.2C183.6,1.6,183.9,1.4,184.3,1.4z"/>
	<path class="st0" d="M321,0h23.5c1.7,1.7,18.4,23.4,50,64.9c9.8,12.5,37.5,48.9,83.4,109.2v8.2c0,0.5-0.2,0.8-0.6,0.8h-22
		c-3.3-3.8-25.8-33.4-67.5-88.8c-45-59-67.5-88.8-67.5-89.4V0.8C320.3,0.2,320.6,0,321,0z"/>
	<path class="st0" d="M504,163.2l117.7,0.1c0.5,0,0.8,0.2,0.8,0.6v18.5c0,0.5-0.3,0.8-0.8,0.8L504,183.1c-0.5,0-0.8-0.3-0.8-0.8
		v-18.5C503.3,163.4,503.6,163.2,504,163.2z M504,80.6l115.9,0.1c0.5,0.1,0.8,0.3,0.8,0.8v18.5c0,0.5-0.3,0.8-0.8,0.8L504,100.8
		c-0.5,0-0.8-0.3-0.8-0.8V81.4C503.4,80.8,503.6,80.6,504,80.6z M504.1,1.6l117.7,0.1c0.5,0.1,0.8,0.3,0.8,0.8V21
		c0,0.4-0.3,0.6-0.8,0.6l-117.7-0.1c-0.5,0-0.8-0.2-0.8-0.6V2.4C503.4,1.9,503.7,1.6,504.1,1.6z"/>
	<path class="st0" d="M651.3,1.7h27.1c3.8,4.8,21.8,28.9,54,72.3h0.4c28-38.7,45.9-62.8,53.5-72.2h27v0.4l-65.9,87.8v0.4
		c1.6,1.8,24.8,32.5,69.7,92.2v0.8h-26.7c-1.1-0.9-20.3-26.5-57.5-76.9h-0.4l-58,76.8h-27.1v-0.8l70.2-92.1L651.5,2.1V1.7H651.3z"/>
	<path class="st0" d="M844.5,1.8h21.3c0.5,0.1,0.8,0.3,0.8,0.6l-0.1,180.1c0,0.5-0.3,0.8-0.8,0.8h-21.3c-0.5,0-0.8-0.3-0.8-0.8
		l0.1-180.1C843.8,2,844.1,1.8,844.5,1.8z"/>
	<path class="st0" d="M315.3,0.8h2.8c0.1,0.1,0.1,0.3,0.1,0.6l0,180.1c0,0.5,0,0.8-0.1,0.8h-2.8c-0.1,0-0.1-0.3-0.1-0.8l0-180.1
		C315.2,1,315.3,0.8,315.3,0.8z"/>
	<path class="st0" d="M480.7,1.8h2.8c0.1,0.1,0.1,0.3,0.1,0.6l0,180.1c0,0.5,0,0.8-0.1,0.8h-2.8c-0.1,0-0.1-0.3-0.1-0.8l0-180.1
		C480.6,2,480.7,1.8,480.7,1.8z"/>
	<path class="st0" d="M978.7,1.8h6.6c22.8,0,42.9,10.1,60.2,30.3c0,0.3,0.9,1.7,2.8,4.2v0.6c-0.3,0-6.4,3.3-18.2,10
		c-12.9-17-29-25.5-48.2-25.5c-18.1,0-33.7,6.1-46.6,18.2c-14,14.2-21,31.9-21,53.1c0,25.7,10.2,45.8,30.6,60.3
		c10.9,7.2,23.2,10.8,36.9,10.8c19.5,0,35.6-8.5,48.2-25.5c12.1,6.5,18.3,10.1,18.6,10.8c-17.7,22.9-38.9,34.4-63.4,34.4h-6.6
		c-22.8,0-43.4-8.6-62-25.9c-16.8-18.3-25.2-38.9-25.1-61.8v-6.6c0-24.7,9.6-46.3,28.6-64.8C937.9,9.3,957.4,1.8,978.7,1.8z"/>
</g>
</svg>
