<svg xmlns="http://www.w3.org/2000/svg" width="28.375" height="28.38" viewBox="0 0 28.375 28.38">
  <metadata><?xpacket begin="﻿" id="W5M0MpCehiHzreSzNTczkc9d"?>
<x:xmpmeta xmlns:x="adobe:ns:meta/" x:xmptk="Adobe XMP Core 5.6-c138 79.159824, 2016/09/14-01:09:01        ">
   <rdf:RDF xmlns:rdf="http://www.w3.org/1999/02/22-rdf-syntax-ns#">
      <rdf:Description rdf:about=""/>
   </rdf:RDF>
</x:xmpmeta>
                                                                                                    
                                                                                                    
                                                                                                    
                                                                                                    
                                                                                                    
                                                                                                    
                                                                                                    
                                                                                                    
                                                                                                    
                                                                                                    
                                                                                                    
                                                                                                    
                                                                                                    
                                                                                                    
                                                                                                    
                                                                                                    
                                                                                                    
                                                                                                    
                                                                                                    
                                                                                                    
                           
<?xpacket end="w"?></metadata>
<defs>
    <style>
      .cls-1 {
        fill: #fff;
        fill-rule: evenodd;
      }
    </style>
  </defs>
  <path id="Friends" class="cls-1" d="M475.7,3722.96c2.561,0,4.828,2.16,4.828,3.46v3.74c0,1.39-.431,4.04-1.961,5.24a1.773,1.773,0,0,0,.247,2.95l5.582,3.09c0.049,0.03.111,0.05,0.163,0.08a1.793,1.793,0,0,1,.41.23v1.6H466.348v-1.58a2.839,2.839,0,0,1,.445-0.27l0.123-.06,5.727-3.1a1.771,1.771,0,0,0,.264-2.94c-1.487-1.19-2.124-3.83-2.124-5.24v-3.74c0-1.27,2.4-3.46,4.915-3.46m0-1.78c-3.307,0-6.688,2.76-6.688,5.24v3.74c0,1.63.692,4.94,2.788,6.62l-5.727,3.1s-1.5.67-1.5,1.5v2.24a1.5,1.5,0,0,0,1.5,1.5h19.172a1.5,1.5,0,0,0,1.5-1.5v-2.24c0-.88-1.5-1.5-1.5-1.5l-5.582-3.09c2.075-1.63,2.638-4.83,2.638-6.63v-3.74c0-2.48-3.293-5.24-6.6-5.24h0Zm15.75,14.29-5.665-3.09c2.075-1.63,2.722-4.83,2.722-6.63v-3.74c0-2.48-3.377-5.26-6.685-5.26a7.8,7.8,0,0,0-5.628,2.66,9.236,9.236,0,0,1,2.23.27,5.5,5.5,0,0,1,3.4-1.16c2.561,0,4.911,2.19,4.911,3.49v3.74c0,1.39-.514,4.04-2.044,5.24a1.773,1.773,0,0,0,.247,2.95l5.665,3.09a1.358,1.358,0,0,1,.163.08,2.221,2.221,0,0,1,.41.22v1.58h-3.579a2.926,2.926,0,0,1,.913,1.77h2.942a1.5,1.5,0,0,0,1.5-1.49v-2.22C492.945,3736.09,491.448,3735.47,491.448,3735.47Z" transform="translate(-464.563 -3716.75)"/>
</svg>
