<svg xmlns="http://www.w3.org/2000/svg" width="28.656" height="28.69" viewBox="0 0 28.656 28.69">
  <metadata><?xpacket begin="﻿" id="W5M0MpCehiHzreSzNTczkc9d"?>
<x:xmpmeta xmlns:x="adobe:ns:meta/" x:xmptk="Adobe XMP Core 5.6-c138 79.159824, 2016/09/14-01:09:01        ">
   <rdf:RDF xmlns:rdf="http://www.w3.org/1999/02/22-rdf-syntax-ns#">
      <rdf:Description rdf:about=""/>
   </rdf:RDF>
</x:xmpmeta>
                                                                                                    
                                                                                                    
                                                                                                    
                                                                                                    
                                                                                                    
                                                                                                    
                                                                                                    
                                                                                                    
                                                                                                    
                                                                                                    
                                                                                                    
                                                                                                    
                                                                                                    
                                                                                                    
                                                                                                    
                                                                                                    
                                                                                                    
                                                                                                    
                                                                                                    
                                                                                                    
                           
<?xpacket end="w"?></metadata>
<defs>
    <style>
      .cls-1 {
        fill: #fff;
        fill-rule: evenodd;
      }
    </style>
  </defs>
  <path id="Clock" class="cls-1" d="M254.041,3718.39a12.56,12.56,0,1,1-12.542,12.54,12.558,12.558,0,0,1,12.542-12.54m0-1.79a14.335,14.335,0,1,0,14.334,14.33,14.335,14.335,0,0,0-14.334-14.33h0Zm0,4.48a0.894,0.894,0,0,1,.9.89v8.96a0.9,0.9,0,1,1-1.792,0v-8.96A0.894,0.894,0,0,1,254.041,3721.08Zm5.125,14.99a0.9,0.9,0,0,1-1.268,0l-4.434-4.44a0.9,0.9,0,1,1,1.267-1.27l4.435,4.44A0.9,0.9,0,0,1,259.166,3736.07Z" transform="translate(-239.719 -3716.59)"/>
</svg>
