<svg xmlns="http://www.w3.org/2000/svg" width="29.875" height="28.38" viewBox="0 0 29.875 28.38">
  <metadata><?xpacket begin="﻿" id="W5M0MpCehiHzreSzNTczkc9d"?>
<x:xmpmeta xmlns:x="adobe:ns:meta/" x:xmptk="Adobe XMP Core 5.6-c138 79.159824, 2016/09/14-01:09:01        ">
   <rdf:RDF xmlns:rdf="http://www.w3.org/1999/02/22-rdf-syntax-ns#">
      <rdf:Description rdf:about=""/>
   </rdf:RDF>
</x:xmpmeta>
                                                                                                    
                                                                                                    
                                                                                                    
                                                                                                    
                                                                                                    
                                                                                                    
                                                                                                    
                                                                                                    
                                                                                                    
                                                                                                    
                                                                                                    
                                                                                                    
                                                                                                    
                                                                                                    
                                                                                                    
                                                                                                    
                                                                                                    
                                                                                                    
                                                                                                    
                                                                                                    
                           
<?xpacket end="w"?></metadata>
<defs>
    <style>
      .cls-1 {
        fill: #fff;
        fill-rule: evenodd;
      }
    </style>
  </defs>
  <path id="Cup" class="cls-1" d="M926.63,3733.82c-5.168,0-9.373-4.53-9.373-10.1v-6.02a0.941,0.941,0,0,1,.938-0.95h16.867a0.94,0.94,0,0,1,.937.95v6.02C936,3729.29,931.8,3733.82,926.63,3733.82Zm-7.5-15.18v5.08c0,4.53,3.363,8.21,7.5,8.21s7.494-3.68,7.494-8.21v-5.08H919.133Zm7.486,23.6a0.938,0.938,0,0,1-.937-0.94v-7.84a0.938,0.938,0,1,1,1.875,0v7.84A0.938,0.938,0,0,1,926.619,3742.24Zm3.837,0.01h-7.581a0.945,0.945,0,0,1,0-1.89h7.581A0.945,0.945,0,0,1,930.456,3742.25Zm2.8,2.87H920.072a0.945,0.945,0,0,1,0-1.89h13.186A0.945,0.945,0,0,1,933.258,3745.12Zm2.017-17.97a0.945,0.945,0,0,1,0-1.89,4.416,4.416,0,0,0,3.6-1.34,5.2,5.2,0,0,0,.872-3.39h-4.319a0.945,0.945,0,0,1,0-1.89h5.157a0.944,0.944,0,0,1,.919.75c0.027,0.14.657,3.46-1.17,5.71A6.152,6.152,0,0,1,935.275,3727.15Zm-17.152,0a6.153,6.153,0,0,1-5.063-2.05c-1.826-2.25-1.2-5.57-1.17-5.71a0.945,0.945,0,0,1,.919-0.75h5.158a0.945,0.945,0,0,1,0,1.89h-4.319a5.19,5.19,0,0,0,.872,3.39,4.414,4.414,0,0,0,3.6,1.34A0.945,0.945,0,0,1,918.123,3727.15Z" transform="translate(-911.75 -3716.75)"/>
</svg>
