<svg xmlns="http://www.w3.org/2000/svg" width="23.938" height="24" viewBox="0 0 23.938 24">
  <metadata><?xpacket begin="﻿" id="W5M0MpCehiHzreSzNTczkc9d"?>
<x:xmpmeta xmlns:x="adobe:ns:meta/" x:xmptk="Adobe XMP Core 5.6-c138 79.159824, 2016/09/14-01:09:01        ">
   <rdf:RDF xmlns:rdf="http://www.w3.org/1999/02/22-rdf-syntax-ns#">
      <rdf:Description rdf:about=""/>
   </rdf:RDF>
</x:xmpmeta>
                                                                                                    
                                                                                                    
                                                                                                    
                                                                                                    
                                                                                                    
                                                                                                    
                                                                                                    
                                                                                                    
                                                                                                    
                                                                                                    
                                                                                                    
                                                                                                    
                                                                                                    
                                                                                                    
                                                                                                    
                                                                                                    
                                                                                                    
                                                                                                    
                                                                                                    
                                                                                                    
                           
<?xpacket end="w"?></metadata>
<defs>
    <style>
      .cls-1 {
        fill: #fff;
        fill-rule: evenodd;
      }
    </style>
  </defs>
  <path id="Rocket" class="cls-1" d="M690.775,3742.86l-0.734.02-0.013-.76c0-3.75.755-4.54,2.356-5.34a6.55,6.55,0,0,0,1.206-.69l0.91,1.16a8.108,8.108,0,0,1-1.45.87c-0.961.48-1.441,0.75-1.516,3.27,2.611-.1,2.907-0.75,3.376-1.72a7.817,7.817,0,0,1,.723-1.27l1.107,1.01a8.889,8.889,0,0,0-.527,1.02C695.472,3741.97,694.732,3742.86,690.775,3742.86Zm15.69-13.41a3,3,0,1,1,2.994-3A3,3,0,0,1,706.465,3729.45Zm0-4.49a1.5,1.5,0,1,0,1.494,1.49A1.495,1.495,0,0,0,706.465,3724.96Zm-6.5,18.03a0.622,0.622,0,0,1-.231-0.04,0.739,0.739,0,0,1-.5-0.53l-0.909-3.85-1.687-1.87c-0.809-.9-1.315-1.46-1.619-1.83l-4.454-1.02a0.753,0.753,0,0,1-.545-0.5,0.739,0.739,0,0,1,.153-0.72l2.736-2.97a0.745,0.745,0,0,1,.559-0.25h4.153c0.259-.47.563-1.08,0.882-1.71a26.523,26.523,0,0,1,2.7-4.73,9.024,9.024,0,0,1,3.806-2.73,21.936,21.936,0,0,1,8.2-1.2,0.752,0.752,0,0,1,.69.7,23.734,23.734,0,0,1-.975,8.22,8.055,8.055,0,0,1-2.537,3.69,40.129,40.129,0,0,1-5.26,3.06c-0.621.34-1.28,0.7-1.652,0.93v3.85a0.746,0.746,0,0,1-.261.57l-2.766,2.75A0.734,0.734,0,0,1,699.966,3742.99Zm-4-9.28c0.159,0.18,2.233,2.48,3.606,4a0.8,0.8,0,0,1,.172.33l0.671,2.84,1.575-1.73v-3.9a0.738,0.738,0,0,1,.275-0.58,21.489,21.489,0,0,1,2.141-1.27,40.5,40.5,0,0,0,5-2.86,6.638,6.638,0,0,0,2.129-3.1,21.058,21.058,0,0,0,.907-6.93,20.135,20.135,0,0,0-6.9,1.13,7.5,7.5,0,0,0-3.194,2.3,26.5,26.5,0,0,0-2.5,4.43c-0.442.88-.823,1.64-1.151,2.17a0.732,0.732,0,0,1-.636.36H693.81l-1.678,1.77,3.42,0.79A0.687,0.687,0,0,1,695.962,3733.71Z" transform="translate(-690 -3719)"/>
</svg>
